<svg width="172" height="31" viewBox="0 0 172 31" fill="none" xmlns="http://www.w3.org/2000/svg">
<path d="M40.9556 24.0208L38.6849 8.06251C38.1016 3.95834 34.581 0.916672 30.4354 0.916672H11.5614C7.41583 0.916672 3.8952 3.95834 3.3119 8.06251L1.04119 24.0208C0.582884 27.2292 3.06191 30.0833 6.29089 30.0833C7.70748 30.0833 9.04074 29.5208 10.0407 28.5208L14.7487 23.8333H27.248L31.9353 28.5208C32.9352 29.5208 34.2893 30.0833 35.6851 30.0833C38.9349 30.0833 41.4139 27.2292 40.9556 24.0208ZM18.9152 13.4167H14.7487V17.5833H12.6655V13.4167H8.4991V11.3333H12.6655V7.16667H14.7487V11.3333H18.9152V13.4167ZM27.248 11.3333C26.1023 11.3333 25.1648 10.3958 25.1648 9.25001C25.1648 8.10417 26.1023 7.16667 27.248 7.16667C28.3938 7.16667 29.3313 8.10417 29.3313 9.25001C29.3313 10.3958 28.3938 11.3333 27.248 11.3333ZM31.4145 17.5833C30.2687 17.5833 29.3313 16.6458 29.3313 15.5C29.3313 14.3542 30.2687 13.4167 31.4145 13.4167C32.5602 13.4167 33.4977 14.3542 33.4977 15.5C33.4977 16.6458 32.5602 17.5833 31.4145 17.5833Z" fill="#2A7AE4"/>
<path d="M124.081 22.5C122.664 23.9167 121.014 24.625 119.131 24.625C117.964 24.625 116.864 24.3917 115.831 23.925C114.814 23.4584 113.923 22.8167 113.156 22C112.406 21.1834 111.806 20.225 111.356 19.125C110.923 18.0084 110.706 16.8084 110.706 15.525C110.706 14.3084 110.923 13.1667 111.356 12.1C111.806 11.0167 112.415 10.075 113.181 9.27503C113.965 8.45836 114.881 7.8167 115.931 7.35003C116.981 6.8667 118.123 6.62503 119.356 6.62503C121.022 6.62503 122.447 6.97503 123.631 7.67503C124.831 8.37503 125.731 9.3167 126.331 10.5L123.756 12.4C123.306 11.5167 122.672 10.8417 121.856 10.375C121.056 9.90836 120.181 9.67503 119.231 9.67503C118.481 9.67503 117.789 9.83336 117.156 10.15C116.539 10.4667 116.006 10.9 115.556 11.45C115.123 12 114.781 12.6334 114.531 13.35C114.298 14.0667 114.181 14.825 114.181 15.625C114.181 16.4584 114.315 17.2417 114.581 17.975C114.848 18.6917 115.214 19.3167 115.681 19.85C116.148 20.3834 116.698 20.8084 117.331 21.125C117.981 21.425 118.681 21.575 119.431 21.575C121.147 21.575 122.697 20.7667 124.081 19.15V17.9H120.506V15.375H126.93V24.5H124.081V22.5Z" fill="#464646"/>
<path d="M135.62 24.75C134.57 24.75 133.62 24.575 132.77 24.225C131.92 23.8584 131.195 23.3667 130.595 22.75C129.996 22.1334 129.529 21.4167 129.196 20.6C128.879 19.7834 128.721 18.925 128.721 18.025C128.721 17.0917 128.879 16.2167 129.196 15.4C129.512 14.5667 129.971 13.8417 130.57 13.225C131.17 12.5917 131.895 12.0917 132.745 11.725C133.612 11.3584 134.579 11.175 135.645 11.175C136.712 11.175 137.662 11.3584 138.495 11.725C139.345 12.0917 140.062 12.5834 140.645 13.2C141.245 13.8167 141.695 14.5334 141.995 15.35C142.312 16.1667 142.47 17.0167 142.47 17.9C142.47 18.1167 142.461 18.325 142.445 18.525C142.445 18.725 142.428 18.8917 142.395 19.025H132.27C132.32 19.5417 132.445 20 132.645 20.4C132.845 20.8 133.104 21.1417 133.42 21.425C133.737 21.7084 134.095 21.925 134.495 22.075C134.895 22.225 135.312 22.3 135.745 22.3C136.412 22.3 137.037 22.1417 137.62 21.825C138.22 21.4917 138.628 21.0584 138.845 20.525L141.72 21.325C141.237 22.325 140.462 23.15 139.395 23.8C138.345 24.4334 137.087 24.75 135.62 24.75ZM139.02 16.85C138.937 15.8667 138.57 15.0834 137.92 14.5C137.287 13.9 136.512 13.6 135.595 13.6C135.145 13.6 134.72 13.6834 134.32 13.85C133.937 14 133.595 14.2167 133.295 14.5C132.995 14.7834 132.745 15.125 132.545 15.525C132.362 15.925 132.254 16.3667 132.22 16.85H139.02Z" fill="#464646"/>
<path d="M150.585 24.75C149.535 24.75 148.585 24.575 147.735 24.225C146.885 23.8584 146.16 23.3667 145.56 22.75C144.961 22.1334 144.494 21.4167 144.161 20.6C143.844 19.7834 143.686 18.925 143.686 18.025C143.686 17.0917 143.844 16.2167 144.161 15.4C144.477 14.5667 144.936 13.8417 145.535 13.225C146.135 12.5917 146.86 12.0917 147.71 11.725C148.577 11.3584 149.544 11.175 150.61 11.175C151.677 11.175 152.627 11.3584 153.46 11.725C154.31 12.0917 155.027 12.5834 155.61 13.2C156.21 13.8167 156.66 14.5334 156.96 15.35C157.276 16.1667 157.435 17.0167 157.435 17.9C157.435 18.1167 157.426 18.325 157.41 18.525C157.41 18.725 157.393 18.8917 157.36 19.025H147.235C147.285 19.5417 147.41 20 147.61 20.4C147.81 20.8 148.069 21.1417 148.385 21.425C148.702 21.7084 149.06 21.925 149.46 22.075C149.86 22.225 150.277 22.3 150.71 22.3C151.377 22.3 152.002 22.1417 152.585 21.825C153.185 21.4917 153.593 21.0584 153.81 20.525L156.685 21.325C156.202 22.325 155.427 23.15 154.36 23.8C153.31 24.4334 152.052 24.75 150.585 24.75ZM153.985 16.85C153.902 15.8667 153.535 15.0834 152.885 14.5C152.252 13.9 151.477 13.6 150.56 13.6C150.11 13.6 149.685 13.6834 149.285 13.85C148.902 14 148.56 14.2167 148.26 14.5C147.96 14.7834 147.71 15.125 147.51 15.525C147.327 15.925 147.219 16.3667 147.185 16.85H153.985Z" fill="#464646"/>
<path d="M168.425 24.5L164.625 18.825L162.825 20.6V24.5H159.476V6.25003H162.825V17.325L168.075 11.425H171.65L166.775 16.975L172 24.5H168.425Z" fill="#464646"/>
<path d="M52.7718 6.75003H55.8216L62.5713 24.5H59.0215L57.3715 20.075H51.1719L49.547 24.5H45.9972L52.7718 6.75003ZM56.7466 17.65L54.2967 10.675L51.7469 17.65H56.7466Z" fill="#2A7AE4"/>
<path d="M64.168 6.25003H67.5178V20.3C67.5178 20.7834 67.6345 21.1584 67.8678 21.425C68.1011 21.6917 68.4345 21.825 68.8678 21.825C69.0678 21.825 69.2844 21.7917 69.5177 21.725C69.7677 21.6584 70.001 21.575 70.2177 21.475L70.6677 24.025C70.2177 24.2417 69.6927 24.4084 69.0928 24.525C68.4928 24.6417 67.9512 24.7 67.4678 24.7C66.4179 24.7 65.6013 24.425 65.018 23.875C64.4514 23.3084 64.168 22.5084 64.168 21.475V6.25003Z" fill="#2A7AE4"/>
<path d="M76.1269 24.75C74.777 24.75 73.7521 24.3167 73.0521 23.45C72.3521 22.5834 72.0022 21.3 72.0022 19.6V11.4H75.352V18.875C75.352 20.8917 76.0769 21.9 77.5268 21.9C78.1768 21.9 78.8018 21.7084 79.4017 21.325C80.0184 20.925 80.5183 20.325 80.9017 19.525V11.4H84.2515V20.65C84.2515 21 84.3098 21.25 84.4265 21.4C84.5598 21.55 84.7681 21.6334 85.0514 21.65V24.5C84.7181 24.5667 84.4348 24.6084 84.2015 24.625C83.9848 24.6417 83.7848 24.65 83.6015 24.65C83.0015 24.65 82.5099 24.5167 82.1266 24.25C81.7599 23.9667 81.5433 23.5834 81.4766 23.1L81.4016 22.05C80.8183 22.95 80.0684 23.625 79.1518 24.075C78.2351 24.525 77.2269 24.75 76.1269 24.75Z" fill="#2A7AE4"/>
<path d="M95.3799 14.3C94.3633 14.3167 93.4551 14.5167 92.6551 14.9C91.8551 15.2667 91.2802 15.825 90.9302 16.575V24.5H87.5804V11.4H90.6552V14.2C90.8885 13.75 91.1635 13.35 91.4802 13C91.7968 12.6334 92.1385 12.3167 92.5051 12.05C92.8718 11.7834 93.2384 11.5834 93.605 11.45C93.9884 11.3 94.355 11.225 94.705 11.225C94.8883 11.225 95.0216 11.225 95.105 11.225C95.205 11.225 95.2966 11.2334 95.3799 11.25V14.3Z" fill="#2A7AE4"/>
<path d="M100.652 24.75C100.018 24.75 99.4268 24.65 98.8768 24.45C98.3268 24.2334 97.8519 23.9417 97.4519 23.575C97.0519 23.1917 96.7353 22.75 96.502 22.25C96.2853 21.75 96.177 21.2 96.177 20.6C96.177 19.9834 96.3103 19.4167 96.5769 18.9C96.8603 18.3667 97.2436 17.9167 97.7269 17.55C98.2268 17.1834 98.8185 16.9 99.5018 16.7C100.185 16.4834 100.935 16.375 101.752 16.375C102.335 16.375 102.902 16.425 103.452 16.525C104.018 16.625 104.518 16.7667 104.951 16.95V16.2C104.951 15.3334 104.701 14.6667 104.202 14.2C103.718 13.7334 102.993 13.5 102.027 13.5C101.327 13.5 100.643 13.625 99.9768 13.875C99.3101 14.125 98.6268 14.4917 97.9269 14.975L96.9019 12.85C98.5852 11.7334 100.402 11.175 102.352 11.175C104.235 11.175 105.693 11.6417 106.726 12.575C107.776 13.4917 108.301 14.825 108.301 16.575V20.65C108.301 21 108.36 21.25 108.476 21.4C108.61 21.55 108.818 21.6334 109.101 21.65V24.5C108.535 24.6167 108.043 24.675 107.626 24.675C106.993 24.675 106.501 24.5334 106.151 24.25C105.818 23.9667 105.61 23.5917 105.526 23.125L105.451 22.4C104.868 23.1667 104.16 23.75 103.327 24.15C102.493 24.55 101.602 24.75 100.652 24.75ZM101.602 22.3C102.168 22.3 102.702 22.2 103.202 22C103.718 21.8 104.118 21.5334 104.402 21.2C104.768 20.9167 104.951 20.6 104.951 20.25V18.75C104.551 18.6 104.118 18.4834 103.652 18.4C103.185 18.3 102.735 18.25 102.302 18.25C101.435 18.25 100.727 18.45 100.177 18.85C99.6268 19.2334 99.3518 19.725 99.3518 20.325C99.3518 20.8917 99.5684 21.3667 100.002 21.75C100.435 22.1167 100.968 22.3 101.602 22.3Z" fill="#2A7AE4"/>
</svg>
